<svg id="visual" viewBox="0 0 960 540" width="960" height="540" preserveAspectRatio="none" xmlns="http://www.w3.org/2000/svg" xmlns:xlink="http://www.w3.org/1999/xlink" version="1.1"><path d="M0 60L14.5 57.3C29 54.7 58 49.3 87.2 48.5C116.3 47.7 145.7 51.3 174.8 58.5C204 65.7 233 76.3 262 81.7C291 87 320 87 349 84.3C378 81.7 407 76.3 436.2 76.3C465.3 76.3 494.7 81.7 523.8 81.7C553 81.7 582 76.3 611 76.3C640 76.3 669 81.7 698 83.5C727 85.3 756 83.7 785.2 75.7C814.3 67.7 843.7 53.3 872.8 48.8C902 44.3 931 49.7 945.5 52.3L960 55L960 0L945.5 0C931 0 902 0 872.8 0C843.7 0 814.3 0 785.2 0C756 0 727 0 698 0C669 0 640 0 611 0C582 0 553 0 523.8 0C494.7 0 465.3 0 436.2 0C407 0 378 0 349 0C320 0 291 0 262 0C233 0 204 0 174.8 0C145.7 0 116.3 0 87.2 0C58 0 29 0 14.5 0L0 0Z" fill="hsla(200,60%,36%,1)"></path><path d="M0 158L14.5 153.5C29 149 58 140 87.2 132.7C116.3 125.3 145.7 119.7 174.8 125C204 130.3 233 146.7 262 158.5C291 170.3 320 177.7 349 177.7C378 177.7 407 170.3 436.2 161.3C465.3 152.3 494.7 141.7 523.8 136.3C553 131 582 131 611 139C640 147 669 163 698 163.8C727 164.7 756 150.3 785.2 136.8C814.3 123.3 843.7 110.7 872.8 105.3C902 100 931 102 945.5 103L960 104L960 53L945.5 50.3C931 47.7 902 42.3 872.8 46.8C843.7 51.3 814.3 65.7 785.2 73.7C756 81.7 727 83.3 698 81.5C669 79.7 640 74.3 611 74.3C582 74.3 553 79.7 523.8 79.7C494.7 79.7 465.3 74.3 436.2 74.3C407 74.3 378 79.7 349 82.3C320 85 291 85 262 79.7C233 74.3 204 63.7 174.8 56.5C145.7 49.3 116.3 45.7 87.2 46.5C58 47.3 29 52.7 14.5 55.3L0 58Z" fill="hsla(200,60%,43%,1)"></path><path d="M0 260L14.5 253.7C29 247.3 58 234.7 87.2 226.7C116.3 218.7 145.7 215.3 174.8 222.7C204 230 233 248 262 257.8C291 267.7 320 269.3 349 265.7C378 262 407 253 436.2 252.2C465.3 251.3 494.7 258.7 523.8 261.3C553 264 582 262 611 260.2C640 258.3 669 256.7 698 256.7C727 256.7 756 258.3 785.2 243C814.3 227.7 843.7 195.3 872.8 181C902 166.7 931 170.3 945.5 172.2L960 174L960 102L945.5 101C931 100 902 98 872.8 103.3C843.7 108.7 814.3 121.3 785.2 134.8C756 148.3 727 162.7 698 161.8C669 161 640 145 611 137C582 129 553 129 523.8 134.3C494.7 139.7 465.3 150.3 436.2 159.3C407 168.3 378 175.7 349 175.7C320 175.7 291 168.3 262 156.5C233 144.7 204 128.3 174.8 123C145.7 117.7 116.3 123.3 87.2 130.7C58 138 29 147 14.5 151.5L0 156Z" fill="hsla(201,60%,50%,1)"></path><path d="M0 401L14.5 405.5C29 410 58 419 87.2 412.7C116.3 406.3 145.7 384.7 174.8 387.3C204 390 233 417 262 418.8C291 420.7 320 397.3 349 386.5C378 375.7 407 377.3 436.2 379C465.3 380.7 494.7 382.3 523.8 393.2C553 404 582 424 611 432.2C640 440.3 669 436.7 698 425.8C727 415 756 397 785.2 394.3C814.3 391.7 843.7 404.3 872.8 401.7C902 399 931 381 945.5 372L960 363L960 172L945.5 170.2C931 168.3 902 164.7 872.8 179C843.7 193.3 814.3 225.7 785.2 241C756 256.3 727 254.7 698 254.7C669 254.7 640 256.3 611 258.2C582 260 553 262 523.8 259.3C494.7 256.7 465.3 249.3 436.2 250.2C407 251 378 260 349 263.7C320 267.3 291 265.7 262 255.8C233 246 204 228 174.8 220.7C145.7 213.3 116.3 216.7 87.2 224.7C58 232.7 29 245.3 14.5 251.7L0 258Z" fill="hsla(204,60%,45%,1)"></path><path d="M0 541L14.5 541C29 541 58 541 87.2 541C116.3 541 145.7 541 174.8 541C204 541 233 541 262 541C291 541 320 541 349 541C378 541 407 541 436.2 541C465.3 541 494.7 541 523.8 541C553 541 582 541 611 541C640 541 669 541 698 541C727 541 756 541 785.2 541C814.3 541 843.7 541 872.8 541C902 541 931 541 945.5 541L960 541L960 361L945.5 370C931 379 902 397 872.8 399.7C843.7 402.3 814.3 389.7 785.2 392.3C756 395 727 413 698 423.8C669 434.7 640 438.3 611 430.2C582 422 553 402 523.8 391.2C494.7 380.3 465.3 378.7 436.2 377C407 375.3 378 373.7 349 384.5C320 395.3 291 418.7 262 416.8C233 415 204 388 174.8 385.3C145.7 382.7 116.3 404.3 87.2 410.7C58 417 29 408 14.5 403.5L0 399Z" fill="hsla(205,60%,38%,1)"></path></svg>